<svg width="380" height="35" viewBox="0 0 380 35" fill="none" xmlns="http://www.w3.org/2000/svg">
<g filter="url(#filter0_d_22_150)">
<path d="M17.356 26.432C14.74 26.432 12.508 25.88 10.66 24.776C8.812 23.648 7.396 22.112 6.412 20.168C5.452 18.224 4.972 15.992 4.972 13.472C4.972 10.952 5.44 8.708 6.376 6.74C7.336 4.748 8.74 3.188 10.588 2.06C12.436 0.931999 14.692 0.368 17.356 0.368C20.476 0.368 23.044 1.16 25.06 2.744C27.076 4.304 28.312 6.524 28.768 9.404H22.54C22.3 8.18 21.712 7.232 20.776 6.56C19.864 5.888 18.688 5.552 17.248 5.552C16 5.552 14.884 5.852 13.9 6.452C12.916 7.028 12.148 7.904 11.596 9.08C11.044 10.232 10.768 11.696 10.768 13.472C10.768 15.2 11.032 16.652 11.56 17.828C12.112 18.98 12.88 19.856 13.864 20.456C14.848 21.032 15.976 21.32 17.248 21.32C18.688 21.32 19.864 21.02 20.776 20.42C21.712 19.796 22.3 18.92 22.54 17.792H28.768C28.312 20.48 27.076 22.592 25.06 24.128C23.044 25.664 20.476 26.432 17.356 26.432ZM43.8464 26.432C42.1184 26.432 40.4624 26.132 38.8784 25.532C37.3184 24.932 35.9144 24.068 34.6664 22.94C33.4424 21.812 32.4704 20.444 31.7504 18.836C31.0544 17.228 30.7064 15.416 30.7064 13.4C30.7064 11.384 31.0544 9.572 31.7504 7.964C32.4704 6.356 33.4424 4.988 34.6664 3.86C35.9144 2.732 37.3184 1.868 38.8784 1.268C40.4624 0.667999 42.1184 0.368 43.8464 0.368C45.5744 0.368 47.2304 0.667999 48.8144 1.268C50.3984 1.868 51.8024 2.732 53.0264 3.86C54.2744 4.988 55.2584 6.356 55.9784 7.964C56.6984 9.572 57.0584 11.384 57.0584 13.4C57.0584 15.416 56.6984 17.228 55.9784 18.836C55.2584 20.444 54.2744 21.812 53.0264 22.94C51.8024 24.068 50.3984 24.932 48.8144 25.532C47.2304 26.132 45.5744 26.432 43.8464 26.432ZM43.8464 21.284C45.0224 21.284 46.1744 20.996 47.3024 20.42C48.4304 19.844 49.3544 18.98 50.0744 17.828C50.8184 16.652 51.1904 15.176 51.1904 13.4C51.1904 11.6 50.8184 10.124 50.0744 8.972C49.3304 7.796 48.3944 6.932 47.2664 6.38C46.1384 5.804 44.9984 5.516 43.8464 5.516C42.6944 5.516 41.5544 5.804 40.4264 6.38C39.3224 6.932 38.3984 7.796 37.6544 8.972C36.9344 10.124 36.5744 11.6 36.5744 13.4C36.5744 15.176 36.9344 16.652 37.6544 17.828C38.3744 18.98 39.2864 19.844 40.3904 20.42C41.5184 20.996 42.6704 21.284 43.8464 21.284ZM59.7272 26V0.799998H66.4952L72.6512 16.244L78.6272 0.799998H85.3952V26H79.7072V10.844L74.8472 23.048H70.2752L65.4152 10.808V26H59.7272ZM88.7662 26V0.799998H95.5342L101.69 16.244L107.666 0.799998H114.434V26H108.746V10.844L103.886 23.048H99.3142L94.4542 10.808V26H88.7662ZM127.957 26.432C125.605 26.432 123.673 25.964 122.161 25.028C120.649 24.092 119.533 22.844 118.813 21.284C118.093 19.724 117.733 17.996 117.733 16.1V0.799998H123.385V16.136C123.385 17.768 123.781 19.028 124.573 19.916C125.365 20.78 126.529 21.212 128.065 21.212C129.577 21.212 130.741 20.78 131.557 19.916C132.397 19.028 132.817 17.768 132.817 16.136V0.799998H138.469V16.1C138.469 18.068 138.145 19.712 137.497 21.032C136.849 22.352 135.997 23.408 134.941 24.2C133.909 24.992 132.769 25.568 131.521 25.928C130.297 26.264 129.109 26.432 127.957 26.432ZM141.712 26V0.799998H147.4L158.164 16.676V0.799998H163.852V26H158.164L147.4 10.196V26H141.712ZM167.271 26V0.799998H172.959V26H167.271ZM182.244 26V5.696H175.008V0.799998H195.168V5.696H187.896V26H182.244ZM203.954 26V15.524L195.314 0.799998H201.758L206.834 9.764L211.874 0.799998H218.21L209.606 15.524V26H203.954ZM237.364 26.432C235.012 26.432 233.08 25.964 231.568 25.028C230.056 24.092 228.94 22.844 228.22 21.284C227.5 19.724 227.14 17.996 227.14 16.1V0.799998H232.792V16.136C232.792 17.768 233.188 19.028 233.98 19.916C234.772 20.78 235.936 21.212 237.472 21.212C238.984 21.212 240.148 20.78 240.964 19.916C241.804 19.028 242.224 17.768 242.224 16.136V0.799998H247.876V16.1C247.876 18.068 247.552 19.712 246.904 21.032C246.256 22.352 245.404 23.408 244.348 24.2C243.316 24.992 242.176 25.568 240.928 25.928C239.704 26.264 238.516 26.432 237.364 26.432ZM251.118 26V0.799998H261.126C262.854 0.799998 264.414 1.112 265.806 1.736C267.198 2.36 268.29 3.26 269.082 4.436C269.898 5.612 270.306 7.016 270.306 8.648C270.306 10.256 269.91 11.66 269.118 12.86C268.35 14.036 267.27 14.948 265.878 15.596C264.51 16.244 262.926 16.568 261.126 16.568H256.806V26H251.118ZM256.806 11.708H260.982C262.326 11.708 263.25 11.408 263.754 10.808C264.282 10.184 264.546 9.464 264.546 8.648C264.546 7.88 264.282 7.196 263.754 6.596C263.25 5.972 262.326 5.66 260.982 5.66H256.806V11.708ZM272.422 26V0.799998H281.602C284.626 0.799998 287.086 1.352 288.982 2.456C290.902 3.536 292.306 5.024 293.194 6.92C294.082 8.792 294.526 10.94 294.526 13.364C294.526 16.124 293.998 18.452 292.942 20.348C291.91 22.22 290.422 23.636 288.478 24.596C286.558 25.532 284.266 26 281.602 26H272.422ZM278.11 21.068H281.314C283.282 21.068 284.794 20.744 285.85 20.096C286.93 19.448 287.674 18.548 288.082 17.396C288.514 16.244 288.73 14.9 288.73 13.364C288.73 10.652 288.106 8.696 286.858 7.496C285.634 6.272 283.786 5.66 281.314 5.66H278.11V21.068ZM293.97 26L303.114 0.799998H309.63L318.81 26H312.798L311.034 20.78H301.674L299.874 26H293.97ZM303.258 16.244H309.486L306.318 7.064L303.258 16.244ZM323.326 26V5.696H316.09V0.799998H336.25V5.696H328.978V26H323.326ZM338.34 26V0.799998H354.9V5.696H344.028V10.268H353.208V15.164H344.028V21.104H354.9V26H338.34ZM366.817 26.432C365.041 26.432 363.421 26.144 361.957 25.568C360.517 24.968 359.353 24.08 358.465 22.904C357.601 21.704 357.133 20.192 357.061 18.368H363.037C363.133 19.208 363.469 19.964 364.045 20.636C364.645 21.308 365.545 21.644 366.745 21.644C367.777 21.644 368.545 21.416 369.049 20.96C369.577 20.504 369.841 19.904 369.841 19.16C369.841 18.824 369.781 18.512 369.661 18.224C369.565 17.936 369.361 17.66 369.049 17.396C368.737 17.108 368.257 16.82 367.609 16.532C366.985 16.244 366.145 15.932 365.089 15.596C363.121 14.972 361.585 14.24 360.481 13.4C359.377 12.56 358.597 11.66 358.141 10.7C357.709 9.74 357.493 8.756 357.493 7.748C357.517 6.116 357.925 4.76 358.717 3.68C359.509 2.576 360.565 1.748 361.885 1.196C363.205 0.644 364.681 0.368 366.313 0.368C367.945 0.368 369.433 0.655999 370.777 1.232C372.145 1.784 373.249 2.612 374.089 3.716C374.929 4.82 375.361 6.188 375.385 7.82H369.265C369.241 7.172 368.965 6.56 368.437 5.984C367.909 5.408 367.129 5.12 366.097 5.12C365.353 5.144 364.717 5.36 364.189 5.768C363.685 6.152 363.433 6.704 363.433 7.424C363.433 8.048 363.697 8.588 364.225 9.044C364.753 9.5 365.497 9.92 366.457 10.304C367.441 10.688 368.581 11.096 369.877 11.528C370.861 11.864 371.725 12.26 372.469 12.716C373.237 13.148 373.873 13.664 374.377 14.264C374.881 14.84 375.265 15.5 375.529 16.244C375.793 16.988 375.925 17.828 375.925 18.764C375.925 20.3 375.529 21.644 374.737 22.796C373.969 23.948 372.901 24.848 371.533 25.496C370.165 26.12 368.593 26.432 366.817 26.432Z" fill="#D9D9D9"/>
</g>
<defs>
<filter id="filter0_d_22_150" x="0.971924" y="0.367999" width="378.953" height="34.064" filterUnits="userSpaceOnUse" color-interpolation-filters="sRGB">
<feFlood flood-opacity="0" result="BackgroundImageFix"/>
<feColorMatrix in="SourceAlpha" type="matrix" values="0 0 0 0 0 0 0 0 0 0 0 0 0 0 0 0 0 0 127 0" result="hardAlpha"/>
<feOffset dy="4"/>
<feGaussianBlur stdDeviation="2"/>
<feComposite in2="hardAlpha" operator="out"/>
<feColorMatrix type="matrix" values="0 0 0 0 0 0 0 0 0 0 0 0 0 0 0 0 0 0 0.25 0"/>
<feBlend mode="normal" in2="BackgroundImageFix" result="effect1_dropShadow_22_150"/>
<feBlend mode="normal" in="SourceGraphic" in2="effect1_dropShadow_22_150" result="shape"/>
</filter>
</defs>
</svg>
