<svg width="415" height="55" viewBox="0 0 415 55" fill="none" xmlns="http://www.w3.org/2000/svg">
<g filter="url(#filter0_d_21_46)">
<path d="M4.16425 46V1.2H14.2763V37.232H32.5803V46H4.16425ZM37.6658 46V1.2H47.7778V46H37.6658ZM66.5238 46L50.4597 1.2H61.1478L72.8598 35.824L84.5718 1.2H95.1958L79.0678 46H66.5238ZM97.7268 46V1.2H127.167V9.904H107.839V18.032H124.159V26.736H107.839V37.296H127.167V46H97.7268ZM163.837 46.768C159.656 46.768 156.221 45.936 153.533 44.272C150.845 42.608 148.861 40.3893 147.581 37.616C146.301 34.8427 145.661 31.7707 145.661 28.4V1.2H155.709V28.464C155.709 31.3653 156.413 33.6053 157.821 35.184C159.229 36.72 161.299 37.488 164.029 37.488C166.717 37.488 168.787 36.72 170.237 35.184C171.731 33.6053 172.477 31.3653 172.477 28.464V1.2H182.525V28.4C182.525 31.8987 181.949 34.8213 180.797 37.168C179.645 39.5147 178.131 41.392 176.253 42.8C174.419 44.208 172.392 45.232 170.173 45.872C167.997 46.4693 165.885 46.768 163.837 46.768ZM188.289 46V1.2H206.081C209.153 1.2 211.927 1.75466 214.401 2.864C216.876 3.97333 218.817 5.57333 220.225 7.664C221.676 9.75467 222.401 12.2507 222.401 15.152C222.401 18.0107 221.697 20.5067 220.289 22.64C218.924 24.7307 217.004 26.352 214.529 27.504C212.097 28.656 209.281 29.232 206.081 29.232H198.401V46H188.289ZM198.401 20.592H205.825C208.215 20.592 209.857 20.0587 210.753 18.992C211.692 17.8827 212.161 16.6027 212.161 15.152C212.161 13.7867 211.692 12.5707 210.753 11.504C209.857 10.3947 208.215 9.84 205.825 9.84H198.401V20.592ZM226.164 46V1.2H242.484C247.86 1.2 252.234 2.18133 255.604 4.144C259.018 6.064 261.514 8.70933 263.092 12.08C264.671 15.408 265.46 19.2267 265.46 23.536C265.46 28.4427 264.522 32.5813 262.644 35.952C260.81 39.28 258.164 41.7973 254.708 43.504C251.295 45.168 247.22 46 242.484 46H226.164ZM236.276 37.232H241.972C245.471 37.232 248.159 36.656 250.036 35.504C251.956 34.352 253.279 32.752 254.004 30.704C254.772 28.656 255.156 26.2667 255.156 23.536C255.156 18.7147 254.047 15.2373 251.828 13.104C249.652 10.928 246.367 9.84 241.972 9.84H236.276V37.232ZM264.472 46L280.728 1.2H292.312L308.632 46H297.944L294.808 36.72H278.168L274.968 46H264.472ZM280.984 28.656H292.056L286.424 12.336L280.984 28.656ZM316.659 46V9.904H303.795V1.2H339.635V9.904H326.707V46H316.659ZM343.352 46V1.2H372.792V9.904H353.464V18.032H369.784V26.736H353.464V37.296H372.792V46H343.352ZM393.977 46.768C390.819 46.768 387.939 46.256 385.337 45.232C382.777 44.1653 380.707 42.5867 379.129 40.496C377.593 38.3627 376.761 35.6747 376.633 32.432H387.257C387.427 33.9253 388.025 35.2693 389.049 36.464C390.115 37.6587 391.715 38.256 393.849 38.256C395.683 38.256 397.049 37.8507 397.945 37.04C398.883 36.2293 399.353 35.1627 399.353 33.84C399.353 33.2427 399.246 32.688 399.033 32.176C398.862 31.664 398.499 31.1733 397.945 30.704C397.39 30.192 396.537 29.68 395.385 29.168C394.275 28.656 392.782 28.1013 390.905 27.504C387.406 26.3947 384.675 25.0933 382.713 23.6C380.75 22.1067 379.363 20.5067 378.553 18.8C377.785 17.0933 377.401 15.344 377.401 13.552C377.443 10.6507 378.169 8.24 379.577 6.32C380.985 4.35733 382.862 2.88533 385.209 1.904C387.555 0.922666 390.179 0.431999 393.081 0.431999C395.982 0.431999 398.627 0.943999 401.017 1.968C403.449 2.94933 405.411 4.42133 406.905 6.384C408.398 8.34667 409.166 10.7787 409.209 13.68H398.329C398.286 12.528 397.795 11.44 396.857 10.416C395.918 9.392 394.531 8.88 392.697 8.88C391.374 8.92266 390.243 9.30666 389.305 10.032C388.409 10.7147 387.961 11.696 387.961 12.976C387.961 14.0853 388.43 15.0453 389.369 15.856C390.307 16.6667 391.63 17.4133 393.337 18.096C395.086 18.7787 397.113 19.504 399.417 20.272C401.166 20.8693 402.702 21.5733 404.025 22.384C405.39 23.152 406.521 24.0693 407.417 25.136C408.313 26.16 408.995 27.3333 409.465 28.656C409.934 29.9787 410.169 31.472 410.169 33.136C410.169 35.8667 409.465 38.256 408.057 40.304C406.691 42.352 404.793 43.952 402.361 45.104C399.929 46.2133 397.134 46.768 393.977 46.768Z" fill="white"/>
</g>
<defs>
<filter id="filter0_d_21_46" x="0.164307" y="0.431997" width="414.005" height="54.336" filterUnits="userSpaceOnUse" color-interpolation-filters="sRGB">
<feFlood flood-opacity="0" result="BackgroundImageFix"/>
<feColorMatrix in="SourceAlpha" type="matrix" values="0 0 0 0 0 0 0 0 0 0 0 0 0 0 0 0 0 0 127 0" result="hardAlpha"/>
<feOffset dy="4"/>
<feGaussianBlur stdDeviation="2"/>
<feComposite in2="hardAlpha" operator="out"/>
<feColorMatrix type="matrix" values="0 0 0 0 0 0 0 0 0 0 0 0 0 0 0 0 0 0 0.25 0"/>
<feBlend mode="plus-darker" in2="BackgroundImageFix" result="effect1_dropShadow_21_46"/>
<feBlend mode="normal" in="SourceGraphic" in2="effect1_dropShadow_21_46" result="shape"/>
</filter>
</defs>
</svg>
