<svg width="320" height="35" viewBox="0 0 320 35" fill="none" xmlns="http://www.w3.org/2000/svg">
<g filter="url(#filter0_d_23_158)">
<path d="M14.692 26.432C12.916 26.432 11.296 26.144 9.832 25.568C8.392 24.968 7.228 24.08 6.34 22.904C5.476 21.704 5.008 20.192 4.936 18.368H10.912C11.008 19.208 11.344 19.964 11.92 20.636C12.52 21.308 13.42 21.644 14.62 21.644C15.652 21.644 16.42 21.416 16.924 20.96C17.452 20.504 17.716 19.904 17.716 19.16C17.716 18.824 17.656 18.512 17.536 18.224C17.44 17.936 17.236 17.66 16.924 17.396C16.612 17.108 16.132 16.82 15.484 16.532C14.86 16.244 14.02 15.932 12.964 15.596C10.996 14.972 9.46 14.24 8.356 13.4C7.252 12.56 6.472 11.66 6.016 10.7C5.584 9.74 5.368 8.756 5.368 7.748C5.392 6.116 5.8 4.76 6.592 3.68C7.384 2.576 8.44 1.748 9.76 1.196C11.08 0.644 12.556 0.368 14.188 0.368C15.82 0.368 17.308 0.655999 18.652 1.232C20.02 1.784 21.124 2.612 21.964 3.716C22.804 4.82 23.236 6.188 23.26 7.82H17.14C17.116 7.172 16.84 6.56 16.312 5.984C15.784 5.408 15.004 5.12 13.972 5.12C13.228 5.144 12.592 5.36 12.064 5.768C11.56 6.152 11.308 6.704 11.308 7.424C11.308 8.048 11.572 8.588 12.1 9.044C12.628 9.5 13.372 9.92 14.332 10.304C15.316 10.688 16.456 11.096 17.752 11.528C18.736 11.864 19.6 12.26 20.344 12.716C21.112 13.148 21.748 13.664 22.252 14.264C22.756 14.84 23.14 15.5 23.404 16.244C23.668 16.988 23.8 17.828 23.8 18.764C23.8 20.3 23.404 21.644 22.612 22.796C21.844 23.948 20.776 24.848 19.408 25.496C18.04 26.12 16.468 26.432 14.692 26.432ZM26.4342 26V0.799998H32.1222V10.232H42.2382V0.799998H47.8902V26H42.2382V15.128H32.1222V26H26.4342ZM51.2897 26V0.799998H67.8497V5.696H56.9777V10.268H66.1577V15.164H56.9777V21.104H67.8497V26H51.2897ZM70.7662 26V0.799998H76.4542V21.068H86.7502V26H70.7662ZM91.1538 26V5.696H83.9178V0.799998H104.078V5.696H96.8058V26H91.1538ZM106.169 26V0.799998H122.729V5.696H111.857V10.268H121.037V15.164H111.857V21.104H122.729V26H106.169ZM125.645 26V0.799998H135.257C136.985 0.799998 138.509 1.1 139.829 1.7C141.149 2.3 142.181 3.164 142.925 4.292C143.669 5.396 144.041 6.716 144.041 8.252C144.041 9.932 143.585 11.336 142.673 12.464C141.761 13.592 140.501 14.396 138.893 14.876L145.769 26H139.217L133.205 15.74H131.333V26H125.645ZM131.333 10.916H135.149C136.037 10.916 136.697 10.784 137.129 10.52C137.585 10.232 137.897 9.884 138.065 9.476C138.233 9.068 138.317 8.66 138.317 8.252C138.317 7.844 138.233 7.448 138.065 7.064C137.897 6.656 137.585 6.32 137.129 6.056C136.697 5.792 136.037 5.66 135.149 5.66H131.333V10.916ZM155.176 26V0.799998H160.864V21.068H171.16V26H155.176ZM184.577 26.432C182.849 26.432 181.193 26.132 179.609 25.532C178.049 24.932 176.645 24.068 175.397 22.94C174.173 21.812 173.201 20.444 172.481 18.836C171.785 17.228 171.437 15.416 171.437 13.4C171.437 11.384 171.785 9.572 172.481 7.964C173.201 6.356 174.173 4.988 175.397 3.86C176.645 2.732 178.049 1.868 179.609 1.268C181.193 0.667999 182.849 0.368 184.577 0.368C186.305 0.368 187.961 0.667999 189.545 1.268C191.129 1.868 192.533 2.732 193.757 3.86C195.005 4.988 195.989 6.356 196.709 7.964C197.429 9.572 197.789 11.384 197.789 13.4C197.789 15.416 197.429 17.228 196.709 18.836C195.989 20.444 195.005 21.812 193.757 22.94C192.533 24.068 191.129 24.932 189.545 25.532C187.961 26.132 186.305 26.432 184.577 26.432ZM184.577 21.284C185.753 21.284 186.905 20.996 188.033 20.42C189.161 19.844 190.085 18.98 190.805 17.828C191.549 16.652 191.921 15.176 191.921 13.4C191.921 11.6 191.549 10.124 190.805 8.972C190.061 7.796 189.125 6.932 187.997 6.38C186.869 5.804 185.729 5.516 184.577 5.516C183.425 5.516 182.285 5.804 181.157 6.38C180.053 6.932 179.129 7.796 178.385 8.972C177.665 10.124 177.305 11.6 177.305 13.4C177.305 15.176 177.665 16.652 178.385 17.828C179.105 18.98 180.017 19.844 181.121 20.42C182.249 20.996 183.401 21.284 184.577 21.284ZM212.122 26.432C209.506 26.432 207.274 25.88 205.426 24.776C203.578 23.648 202.162 22.112 201.178 20.168C200.218 18.224 199.738 15.992 199.738 13.472C199.738 10.952 200.206 8.708 201.142 6.74C202.102 4.748 203.506 3.188 205.354 2.06C207.202 0.931999 209.458 0.368 212.122 0.368C215.242 0.368 217.81 1.16 219.826 2.744C221.842 4.304 223.078 6.524 223.534 9.404H217.306C217.066 8.18 216.478 7.232 215.542 6.56C214.63 5.888 213.454 5.552 212.014 5.552C210.766 5.552 209.65 5.852 208.666 6.452C207.682 7.028 206.914 7.904 206.362 9.08C205.81 10.232 205.534 11.696 205.534 13.472C205.534 15.2 205.798 16.652 206.326 17.828C206.878 18.98 207.646 19.856 208.63 20.456C209.614 21.032 210.742 21.32 212.014 21.32C213.454 21.32 214.63 21.02 215.542 20.42C216.478 19.796 217.066 18.92 217.306 17.792H223.534C223.078 20.48 221.842 22.592 219.826 24.128C217.81 25.664 215.242 26.432 212.122 26.432ZM223.517 26L232.661 0.799998H239.177L248.357 26H242.345L240.581 20.78H231.221L229.421 26H223.517ZM232.805 16.244H239.033L235.865 7.064L232.805 16.244ZM252.873 26V5.696H245.637V0.799998H265.797V5.696H258.525V26H252.873ZM279.639 26.432C277.911 26.432 276.255 26.132 274.671 25.532C273.111 24.932 271.707 24.068 270.459 22.94C269.235 21.812 268.263 20.444 267.543 18.836C266.847 17.228 266.499 15.416 266.499 13.4C266.499 11.384 266.847 9.572 267.543 7.964C268.263 6.356 269.235 4.988 270.459 3.86C271.707 2.732 273.111 1.868 274.671 1.268C276.255 0.667999 277.911 0.368 279.639 0.368C281.367 0.368 283.023 0.667999 284.607 1.268C286.191 1.868 287.595 2.732 288.819 3.86C290.067 4.988 291.051 6.356 291.771 7.964C292.491 9.572 292.851 11.384 292.851 13.4C292.851 15.416 292.491 17.228 291.771 18.836C291.051 20.444 290.067 21.812 288.819 22.94C287.595 24.068 286.191 24.932 284.607 25.532C283.023 26.132 281.367 26.432 279.639 26.432ZM279.639 21.284C280.815 21.284 281.967 20.996 283.095 20.42C284.223 19.844 285.147 18.98 285.867 17.828C286.611 16.652 286.983 15.176 286.983 13.4C286.983 11.6 286.611 10.124 285.867 8.972C285.123 7.796 284.187 6.932 283.059 6.38C281.931 5.804 280.791 5.516 279.639 5.516C278.487 5.516 277.347 5.804 276.219 6.38C275.115 6.932 274.191 7.796 273.447 8.972C272.727 10.124 272.367 11.6 272.367 13.4C272.367 15.176 272.727 16.652 273.447 17.828C274.167 18.98 275.079 19.844 276.183 20.42C277.311 20.996 278.463 21.284 279.639 21.284ZM295.52 26V0.799998H305.132C306.86 0.799998 308.384 1.1 309.704 1.7C311.024 2.3 312.056 3.164 312.8 4.292C313.544 5.396 313.916 6.716 313.916 8.252C313.916 9.932 313.46 11.336 312.548 12.464C311.636 13.592 310.376 14.396 308.768 14.876L315.644 26H309.092L303.08 15.74H301.208V26H295.52ZM301.208 10.916H305.024C305.912 10.916 306.572 10.784 307.004 10.52C307.46 10.232 307.772 9.884 307.94 9.476C308.108 9.068 308.192 8.66 308.192 8.252C308.192 7.844 308.108 7.448 307.94 7.064C307.772 6.656 307.46 6.32 307.004 6.056C306.572 5.792 305.912 5.66 305.024 5.66H301.208V10.916Z" fill="#D9D9D9"/>
</g>
<defs>
<filter id="filter0_d_23_158" x="0.936035" y="0.367999" width="318.708" height="34.064" filterUnits="userSpaceOnUse" color-interpolation-filters="sRGB">
<feFlood flood-opacity="0" result="BackgroundImageFix"/>
<feColorMatrix in="SourceAlpha" type="matrix" values="0 0 0 0 0 0 0 0 0 0 0 0 0 0 0 0 0 0 127 0" result="hardAlpha"/>
<feOffset dy="4"/>
<feGaussianBlur stdDeviation="2"/>
<feComposite in2="hardAlpha" operator="out"/>
<feColorMatrix type="matrix" values="0 0 0 0 0 0 0 0 0 0 0 0 0 0 0 0 0 0 0.25 0"/>
<feBlend mode="normal" in2="BackgroundImageFix" result="effect1_dropShadow_23_158"/>
<feBlend mode="normal" in="SourceGraphic" in2="effect1_dropShadow_23_158" result="shape"/>
</filter>
</defs>
</svg>
